<?xml version="1.0" encoding="UTF-8" standalone="no"?>
<!DOCTYPE svg PUBLIC "-//W3C//DTD SVG 1.1//EN"
 "http://www.w3.org/Graphics/SVG/1.1/DTD/svg11.dtd">
<!-- Generated by graphviz version 2.28.0 (20110509.1545)
 -->
<!-- Title: flow Pages: 1 -->
<svg width="806pt" height="267pt"
 viewBox="0.00 0.00 806.00 267.00" xmlns="http://www.w3.org/2000/svg" xmlns:xlink="http://www.w3.org/1999/xlink">
<g id="graph1" class="graph" transform="scale(1 1) rotate(0) translate(4 263)">
<title>flow</title>
<polygon fill="white" stroke="white" points="-4,5 -4,-263 803,-263 803,5 -4,5"/>
<!-- b_raw -->
<g id="node1" class="node"><title>b_raw</title>
<polygon fill="none" stroke="black" points="8,-63 8,-84 52,-84 52,-63 8,-63"/>
<text text-anchor="start" x="11.5" y="-67.5" font-family="monospace" font-size="14.00">b.raw</text>
<polygon fill="none" stroke="black" points="8,-43 8,-63 52,-63 52,-43 8,-43"/>
<text text-anchor="start" x="23" y="-47" font-family="Times,serif" font-size="14.00">01</text>
<polygon fill="none" stroke="black" points="8,-23 8,-43 52,-43 52,-23 8,-23"/>
<text text-anchor="start" x="23" y="-27" font-family="Times,serif" font-size="14.00">02</text>
<polygon fill="none" stroke="red" points="8,-3 8,-23 52,-23 52,-3 8,-3"/>
<text text-anchor="start" x="23" y="-7" font-family="Times,serif" font-size="14.00">03</text>
</g>
<!-- b_merge -->
<g id="node6" class="node"><title>b_merge</title>
<polygon fill="none" stroke="black" points="357,-73 357,-94 420,-94 420,-73 357,-73"/>
<text text-anchor="start" x="360.5" y="-77.5" font-family="monospace" font-size="14.00">b.merge</text>
<polygon fill="none" stroke="black" points="357,-53 357,-73 420,-73 420,-53 357,-53"/>
<text text-anchor="start" x="381.5" y="-57" font-family="Times,serif" font-size="14.00">01</text>
<polygon fill="none" stroke="black" points="357,-33 357,-53 420,-53 420,-33 357,-33"/>
<text text-anchor="start" x="381.5" y="-37" font-family="Times,serif" font-size="14.00">02</text>
<polygon fill="none" stroke="red" points="357,-13 357,-33 420,-33 420,-13 357,-13"/>
<text text-anchor="start" x="381.5" y="-17" font-family="Times,serif" font-size="14.00">03</text>
</g>
<!-- b_raw&#45;&gt;b_merge -->
<g id="edge26" class="edge"><title>b_raw:o01&#45;&gt;b_merge:o01</title>
<path fill="none" stroke="#000000" stroke-opacity="0.200000" d="M53,-53C184.319,-53 219.493,-62.4986 345.929,-62.981"/>
<polygon fill="#000000" fill-opacity="0.200000" stroke="#000000" stroke-opacity="0.200000" points="345.993,-66.481 356,-63 346.007,-59.481 345.993,-66.481"/>
</g>
<!-- b_raw&#45;&gt;b_merge -->
<g id="edge28" class="edge"><title>b_raw:o01&#45;&gt;b_merge:o02</title>
<path fill="none" stroke="#000000" stroke-opacity="0.200000" d="M53,-53C184.319,-53 219.493,-43.5014 345.929,-43.019"/>
<polygon fill="#000000" fill-opacity="0.200000" stroke="#000000" stroke-opacity="0.200000" points="346.007,-46.519 356,-43 345.993,-39.519 346.007,-46.519"/>
</g>
<!-- b_raw&#45;&gt;b_merge -->
<g id="edge30" class="edge"><title>b_raw:o02&#45;&gt;b_merge:o02</title>
<path fill="none" stroke="#000000" stroke-opacity="0.200000" d="M53,-33C184.319,-33 219.493,-42.4986 345.929,-42.981"/>
<polygon fill="#000000" fill-opacity="0.200000" stroke="#000000" stroke-opacity="0.200000" points="345.993,-46.481 356,-43 346.007,-39.481 345.993,-46.481"/>
</g>
<!-- b_raw&#45;&gt;b_merge -->
<g id="edge32" class="edge"><title>b_raw:o01&#45;&gt;b_merge:o03</title>
<path fill="none" stroke="red" d="M53,-53C184.889,-53 218.966,-24.5041 345.888,-23.057"/>
<polygon fill="red" stroke="red" points="346.02,-26.5564 356,-23 345.98,-19.5566 346.02,-26.5564"/>
</g>
<!-- b_raw&#45;&gt;b_merge -->
<g id="edge34" class="edge"><title>b_raw:o02&#45;&gt;b_merge:o03</title>
<path fill="none" stroke="red" d="M53,-33C184.319,-33 219.493,-23.5014 345.929,-23.019"/>
<polygon fill="red" stroke="red" points="346.007,-26.519 356,-23 345.993,-19.519 346.007,-26.519"/>
</g>
<!-- b_raw&#45;&gt;b_merge -->
<g id="edge36" class="edge"><title>b_raw:o03&#45;&gt;b_merge:o03</title>
<path fill="none" stroke="red" d="M53,-13C184.319,-13 219.493,-22.4986 345.929,-22.981"/>
<polygon fill="red" stroke="red" points="345.993,-26.481 356,-23 346.007,-19.481 345.993,-26.481"/>
</g>
<!-- a_raw -->
<g id="node2" class="node"><title>a_raw</title>
<polygon fill="none" stroke="black" points="9,-234 9,-255 52,-255 52,-234 9,-234"/>
<text text-anchor="start" x="12.5" y="-238.5" font-family="monospace" font-size="14.00">a.raw</text>
<polygon fill="none" stroke="black" points="9,-214 9,-234 52,-234 52,-214 9,-214"/>
<text text-anchor="start" x="23.5" y="-218" font-family="Times,serif" font-size="14.00">01</text>
<polygon fill="none" stroke="black" points="9,-194 9,-214 52,-214 52,-194 9,-194"/>
<text text-anchor="start" x="23.5" y="-198" font-family="Times,serif" font-size="14.00">02</text>
<polygon fill="none" stroke="red" points="9,-174 9,-194 52,-194 52,-174 9,-174"/>
<text text-anchor="start" x="23.5" y="-178" font-family="Times,serif" font-size="14.00">03</text>
</g>
<!-- a_merge -->
<g id="node4" class="node"><title>a_merge</title>
<polygon fill="none" stroke="black" points="357,-234 357,-255 419,-255 419,-234 357,-234"/>
<text text-anchor="start" x="360.5" y="-238.5" font-family="monospace" font-size="14.00">a.merge</text>
<polygon fill="none" stroke="black" points="357,-214 357,-234 419,-234 419,-214 357,-214"/>
<text text-anchor="start" x="381" y="-218" font-family="Times,serif" font-size="14.00">01</text>
<polygon fill="none" stroke="black" points="357,-194 357,-214 419,-214 419,-194 357,-194"/>
<text text-anchor="start" x="381" y="-198" font-family="Times,serif" font-size="14.00">02</text>
<polygon fill="none" stroke="red" points="357,-174 357,-194 419,-194 419,-174 357,-174"/>
<text text-anchor="start" x="381" y="-178" font-family="Times,serif" font-size="14.00">03</text>
</g>
<!-- a_raw&#45;&gt;a_merge -->
<g id="edge38" class="edge"><title>a_raw:o01&#45;&gt;a_merge:o01</title>
<path fill="none" stroke="#000000" stroke-opacity="0.200000" d="M53,-224C184.247,-224 219.559,-224 345.934,-224"/>
<polygon fill="#000000" fill-opacity="0.200000" stroke="#000000" stroke-opacity="0.200000" points="346,-227.5 356,-224 346,-220.5 346,-227.5"/>
</g>
<!-- a_raw&#45;&gt;a_merge -->
<g id="edge40" class="edge"><title>a_raw:o01&#45;&gt;a_merge:o02</title>
<path fill="none" stroke="#000000" stroke-opacity="0.200000" d="M53,-224C184.533,-224 219.295,-205.003 345.914,-204.038"/>
<polygon fill="#000000" fill-opacity="0.200000" stroke="#000000" stroke-opacity="0.200000" points="346.013,-207.538 356,-204 345.987,-200.538 346.013,-207.538"/>
</g>
<!-- a_raw&#45;&gt;a_merge -->
<g id="edge42" class="edge"><title>a_raw:o02&#45;&gt;a_merge:o02</title>
<path fill="none" stroke="#000000" stroke-opacity="0.200000" d="M53,-204C184.247,-204 219.559,-204 345.934,-204"/>
<polygon fill="#000000" fill-opacity="0.200000" stroke="#000000" stroke-opacity="0.200000" points="346,-207.5 356,-204 346,-200.5 346,-207.5"/>
</g>
<!-- a_raw&#45;&gt;a_merge -->
<g id="edge44" class="edge"><title>a_raw:o01&#45;&gt;a_merge:o03</title>
<path fill="none" stroke="red" d="M53,-224C185.386,-224 218.507,-186.005 345.852,-184.076"/>
<polygon fill="red" stroke="red" points="346.027,-187.575 356,-184 345.974,-180.575 346.027,-187.575"/>
</g>
<!-- a_raw&#45;&gt;a_merge -->
<g id="edge46" class="edge"><title>a_raw:o02&#45;&gt;a_merge:o03</title>
<path fill="none" stroke="red" d="M53,-204C184.533,-204 219.295,-185.003 345.914,-184.038"/>
<polygon fill="red" stroke="red" points="346.013,-187.538 356,-184 345.987,-180.538 346.013,-187.538"/>
</g>
<!-- a_raw&#45;&gt;a_merge -->
<g id="edge48" class="edge"><title>a_raw:o03&#45;&gt;a_merge:o03</title>
<path fill="none" stroke="red" d="M53,-184C184.247,-184 219.559,-184 345.934,-184"/>
<polygon fill="red" stroke="red" points="346,-187.5 356,-184 346,-180.5 346,-187.5"/>
</g>
<!-- combine -->
<g id="node3" class="node"><title>combine</title>
<polygon fill="none" stroke="black" points="725,-173 725,-194 790,-194 790,-173 725,-173"/>
<text text-anchor="start" x="728.5" y="-177.5" font-family="monospace" font-size="14.00">combine</text>
<polygon fill="none" stroke="black" points="725,-153 725,-173 790,-173 790,-153 725,-153"/>
<text text-anchor="start" x="750.5" y="-157" font-family="Times,serif" font-size="14.00">01</text>
<polygon fill="none" stroke="black" points="725,-133 725,-153 790,-153 790,-133 725,-133"/>
<text text-anchor="start" x="750.5" y="-137" font-family="Times,serif" font-size="14.00">02</text>
<polygon fill="none" stroke="red" points="725,-113 725,-133 790,-133 790,-113 725,-113"/>
<text text-anchor="start" x="750.5" y="-117" font-family="Times,serif" font-size="14.00">03</text>
</g>
<!-- a_merge&#45;&gt;combine -->
<g id="edge2" class="edge"><title>a_merge:o01&#45;&gt;combine:o01</title>
<path fill="none" stroke="#000000" stroke-opacity="0.200000" d="M420,-224C554.305,-224 584.683,-166.058 713.711,-163.116"/>
<polygon fill="#000000" fill-opacity="0.200000" stroke="#000000" stroke-opacity="0.200000" points="714.04,-166.613 724,-163 713.961,-159.613 714.04,-166.613"/>
</g>
<!-- a_merge&#45;&gt;combine -->
<g id="edge6" class="edge"><title>a_merge:o01&#45;&gt;combine:o02</title>
<path fill="none" stroke="#000000" stroke-opacity="0.200000" d="M420,-224C556.411,-224 582.917,-146.907 713.962,-143.142"/>
<polygon fill="#000000" fill-opacity="0.200000" stroke="#000000" stroke-opacity="0.200000" points="714.051,-146.642 724,-143 713.951,-139.642 714.051,-146.642"/>
</g>
<!-- a_merge&#45;&gt;combine -->
<g id="edge8" class="edge"><title>a_merge:o02&#45;&gt;combine:o02</title>
<path fill="none" stroke="#000000" stroke-opacity="0.200000" d="M420,-204C554.305,-204 584.683,-146.058 713.711,-143.116"/>
<polygon fill="#000000" fill-opacity="0.200000" stroke="#000000" stroke-opacity="0.200000" points="714.04,-146.613 724,-143 713.961,-139.613 714.04,-146.613"/>
</g>
<!-- a_merge&#45;&gt;combine -->
<g id="edge14" class="edge"><title>a_merge:o01&#45;&gt;combine:o03</title>
<path fill="none" stroke="red" d="M420,-224C558.897,-224 580.614,-127.871 713.789,-123.178"/>
<polygon fill="red" stroke="red" points="714.062,-126.674 724,-123 713.941,-119.675 714.062,-126.674"/>
</g>
<!-- a_merge&#45;&gt;combine -->
<g id="edge16" class="edge"><title>a_merge:o02&#45;&gt;combine:o03</title>
<path fill="none" stroke="red" d="M420,-204C556.411,-204 582.917,-126.907 713.962,-123.142"/>
<polygon fill="red" stroke="red" points="714.051,-126.642 724,-123 713.951,-119.642 714.051,-126.642"/>
</g>
<!-- a_merge&#45;&gt;combine -->
<g id="edge18" class="edge"><title>a_merge:o03&#45;&gt;combine:o03</title>
<path fill="none" stroke="red" d="M420,-184C554.305,-184 584.683,-126.058 713.711,-123.116"/>
<polygon fill="red" stroke="red" points="714.04,-126.613 724,-123 713.961,-119.613 714.04,-126.613"/>
</g>
<!-- b_merge&#45;&gt;combine -->
<g id="edge4" class="edge"><title>b_merge:o01&#45;&gt;combine:o01</title>
<path fill="none" stroke="#000000" stroke-opacity="0.200000" d="M421,-63C559.349,-63 581.17,-158.177 713.829,-162.824"/>
<polygon fill="#000000" fill-opacity="0.200000" stroke="#000000" stroke-opacity="0.200000" points="713.941,-166.326 724,-163 714.062,-159.328 713.941,-166.326"/>
</g>
<!-- b_merge&#45;&gt;combine -->
<g id="edge22" class="edge"><title>b_merge:o02&#45;&gt;combine:o03</title>
<path fill="none" stroke="red" d="M421,-43C556.881,-43 583.457,-119.141 714.001,-122.859"/>
<polygon fill="red" stroke="red" points="713.952,-126.359 724,-123 714.05,-119.36 713.952,-126.359"/>
</g>
<!-- b_merge&#45;&gt;combine -->
<g id="edge24" class="edge"><title>b_merge:o03&#45;&gt;combine:o03</title>
<path fill="none" stroke="red" d="M421,-23C559.349,-23 581.17,-118.177 713.829,-122.824"/>
<polygon fill="red" stroke="red" points="713.941,-126.326 724,-123 714.062,-119.328 713.941,-126.326"/>
</g>
<!-- b_merge&#45;&gt;combine -->
<g id="edge10" class="edge"><title>b_merge:o01&#45;&gt;combine:o02</title>
<path fill="none" stroke="#000000" stroke-opacity="0.200000" d="M421,-63C556.881,-63 583.457,-139.141 714.001,-142.859"/>
<polygon fill="#000000" fill-opacity="0.200000" stroke="#000000" stroke-opacity="0.200000" points="713.952,-146.359 724,-143 714.05,-139.36 713.952,-146.359"/>
</g>
<!-- b_merge&#45;&gt;combine -->
<g id="edge12" class="edge"><title>b_merge:o02&#45;&gt;combine:o02</title>
<path fill="none" stroke="#000000" stroke-opacity="0.200000" d="M421,-43C559.349,-43 581.17,-138.177 713.829,-142.824"/>
<polygon fill="#000000" fill-opacity="0.200000" stroke="#000000" stroke-opacity="0.200000" points="713.941,-146.326 724,-143 714.062,-139.328 713.941,-146.326"/>
</g>
<!-- b_merge&#45;&gt;combine -->
<g id="edge20" class="edge"><title>b_merge:o01&#45;&gt;combine:o03</title>
<path fill="none" stroke="red" d="M421,-63C554.796,-63 585.204,-119.992 713.75,-122.886"/>
<polygon fill="red" stroke="red" points="713.962,-126.388 724,-123 714.04,-119.389 713.962,-126.388"/>
</g>
</g>
</svg>
